<svg width="148" height="32" viewBox="0 0 148 32" fill="none" xmlns="http://www.w3.org/2000/svg">
<path fill-rule="evenodd" clip-rule="evenodd" d="M5.33335 0H1.33335V14.8212L1.33334 14.8333L1.33335 22.6667H5.33335V14.8253C5.3377 13.0801 6.75379 11.6667 8.50001 11.6667C10.2489 11.6667 11.6667 13.0844 11.6667 14.8333V22.6667H15.6667V14.8333C15.6667 10.8753 12.4581 7.66667 8.50001 7.66667C7.36322 7.66667 6.28824 7.93135 5.33335 8.40244V0ZM74.5 11.6667C72.7511 11.6667 71.3333 13.0844 71.3333 14.8333V22.6667H67.3333V14.8333C67.3333 10.8753 70.542 7.66667 74.5 7.66667V11.6667ZM97.6667 14.8333C97.6667 13.0844 99.0844 11.6667 100.833 11.6667V7.66667C96.8753 7.66667 93.6667 10.8753 93.6667 14.8333V22.6667H97.6667V14.8333ZM37.3333 7.66667H33.3333V15.1667V30.3333H37.3333V21.8016C38.3782 22.3539 39.5692 22.6667 40.8333 22.6667C44.9755 22.6667 48.3333 19.3088 48.3333 15.1667C48.3333 11.0245 44.9755 7.66667 40.8333 7.66667C39.5692 7.66667 38.3782 7.9794 37.3333 8.53171V7.66667ZM44.3333 15.1666C44.3333 17.0996 42.7663 18.6666 40.8333 18.6666C38.9003 18.6666 37.3333 17.0996 37.3333 15.1666C37.3333 13.2336 38.9003 11.6666 40.8333 11.6666C42.7663 11.6666 44.3333 13.2336 44.3333 15.1666ZM117.333 15.1667C117.333 19.3088 113.975 22.6667 109.833 22.6667C105.691 22.6667 102.333 19.3088 102.333 15.1667C102.333 11.0245 105.691 7.66667 109.833 7.66667C113.975 7.66667 117.333 11.0245 117.333 15.1667ZM113.333 15.1666C113.333 17.0996 111.766 18.6666 109.833 18.6666C107.9 18.6666 106.333 17.0996 106.333 15.1666C106.333 13.2336 107.9 11.6666 109.833 11.6666C111.766 11.6666 113.333 13.2336 113.333 15.1666ZM65.2932 15.2213C65.2932 15.6133 65.2652 16.1173 65.2092 16.5093H54.1492C54.6532 18.3013 56.1652 19.4493 58.2372 19.4493C59.9732 19.4493 61.4012 18.6373 62.1572 17.6853L64.5932 19.8133C63.1092 21.5773 60.8132 22.6693 58.1252 22.6693C53.5892 22.6693 50.2012 19.4213 50.2012 15.1373C50.2012 10.9093 53.4772 7.71729 57.7892 7.71729C62.0732 7.71729 65.2932 10.9093 65.2932 15.2213ZM57.7612 10.9093C55.9692 10.9093 54.5692 12.0853 54.1212 13.8493H61.4012C60.9532 12.0573 59.5252 10.9093 57.7612 10.9093ZM122.333 5.23295C122.778 4.97635 122.778 4.33485 122.333 4.07825L116.833 0.902822C116.389 0.646222 115.833 0.966973 115.833 1.48017V7.83103C115.833 8.34423 116.389 8.66498 116.833 8.40838L122.333 5.23295ZM83.8333 7.6556L83.8389 7.66667L83.8333 7.66667C79.6912 7.66667 76.3333 11.0245 76.3333 15.1667C76.3333 19.3088 79.6912 22.6667 83.8333 22.6667C87.9755 22.6667 91.3333 19.3088 91.3333 15.1667C91.3333 13.0928 90.4916 11.2155 89.1311 9.85783L91.3333 7.6556H83.8333ZM83.8333 18.6667C85.7663 18.6667 87.3333 17.0997 87.3333 15.1667C87.3333 13.2338 85.7663 11.6667 83.8333 11.6667C81.9003 11.6667 80.3333 13.2338 80.3333 15.1667C80.3333 17.0997 81.9003 18.6667 83.8333 18.6667ZM16.6667 26V30C16.7957 29.9856 16.9351 29.9724 17.0838 29.9582C19.2281 29.7546 23.2921 29.3687 25.8438 22.6667C27.8743 17.3333 30.5718 10.4444 31.6667 7.66667H27.4167L23.5364 17.6129L20 7.66667H16L21.3333 22.6667H21.4167C20.6842 23.9507 18.9633 26 16.6667 26ZM83.8331 32C79.7429 32 76.4175 28.7259 76.3346 24.6556H80.3365C80.4179 26.5164 81.9522 28 83.8331 28C84.8974 28 85.8508 27.5249 86.4927 26.7752L83.6667 24.6557H87.3297L87.3297 24.6556H91.3315V24.6557H91.3333L91.3314 24.661C91.2457 28.7288 87.9214 32 83.8331 32Z" fill="white"/>
<path fill-rule="evenodd" clip-rule="evenodd" d="M142.574 4.04509C142.574 5.44909 143.627 6.47509 145.004 6.47509C146.408 6.47509 147.461 5.44909 147.461 4.04509C147.461 2.66809 146.408 1.64209 145.004 1.64209C143.627 1.64209 142.574 2.66809 142.574 4.04509ZM143.033 8.23009V22.0001H146.975V8.23009H143.033ZM139.996 8.23H136.054V9.60701C135.001 8.52701 133.57 7.90601 131.896 7.90601C128.116 7.90601 125.254 11.011 125.254 15.115C125.254 19.219 128.116 22.324 131.896 22.324C133.57 22.324 135.001 21.703 136.054 20.623V22H139.996V8.23ZM136.054 15.115C136.054 17.059 134.623 18.517 132.679 18.517C130.762 18.517 129.331 17.059 129.331 15.115C129.331 13.171 130.762 11.713 132.679 11.713C134.623 11.713 136.054 13.171 136.054 15.115Z" fill="#6D28D9"/>
<path d="M121.004 22.27C119.465 22.27 118.304 21.109 118.304 19.57C118.304 18.058 119.465 16.897 121.004 16.897C122.57 16.897 123.731 18.058 123.731 19.57C123.731 21.109 122.57 22.27 121.004 22.27Z" fill="white"/>
</svg>
